<svg width="708" height="336" viewBox="0 0 708 336" fill="none" xmlns="http://www.w3.org/2000/svg">
<rect width="708" height="336" fill="#29B6D1"/>
<path d="M676.594 277.613V288.206C676.594 292.41 673.085 295.819 668.758 295.819H667.965L663.918 299.748C663.759 299.902 663.54 300 663.297 300C663.072 300 662.869 299.92 662.713 299.787L662.644 299.72L662.642 299.718L658.629 295.819H657.833C653.509 295.819 650 292.41 650 288.206V277.613C650 273.409 653.509 270 657.836 270H668.758C673.085 270 676.594 273.409 676.594 277.613Z" fill="#FFD666"/>
<path d="M670.14 290.947C670.911 290.947 671.351 290.093 670.903 289.476C669.163 287.074 666.285 285.508 663.033 285.508C659.781 285.508 656.906 287.077 655.166 289.476C654.718 290.093 655.158 290.947 655.929 290.947L657.548 290.212L659.167 289.476L661.042 288.958L663.033 288.75L665.208 288.958L667.292 289.476L668.75 290.208L670.14 290.947Z" fill="white"/>
<path d="M660.448 281.039H655.793V278.758C655.793 277.499 656.835 276.477 658.12 276.477C659.405 276.477 660.448 277.499 660.448 278.758V281.039Z" fill="white"/>
<path d="M670.279 281.039H665.624V278.758C665.624 277.499 666.666 276.477 667.951 276.477C669.236 276.477 670.279 277.499 670.279 278.758V281.039Z" fill="white"/>
<path d="M670.417 285.833C669.68 285.833 669.167 285.393 669.167 284.763C669.167 284.119 670.287 282.605 670.335 282.541C670.354 282.515 670.385 282.5 670.417 282.5C670.449 282.5 670.479 282.515 670.498 282.541C670.545 282.605 671.667 284.119 671.667 284.763C671.667 285.393 671.152 285.833 670.417 285.833Z" fill="white"/>
<path d="M248.81 68.1894C247.784 67.1637 246.567 66.3502 245.227 65.7951C243.887 65.24 242.45 64.9543 241 64.9543C239.55 64.9543 238.113 65.24 236.773 65.7951C235.433 66.3502 234.216 67.1637 233.19 68.1894C231.119 70.2607 229.955 73.07 229.955 75.9994C229.955 78.9287 231.119 81.738 233.19 83.8094L263.99 114.499H263C254.248 114.499 245.854 117.976 239.666 124.165C233.477 130.354 230 138.747 230 147.499V235.499C230 244.251 233.477 252.645 239.666 258.834C245.854 265.023 254.248 268.499 263 268.499H417.88L431.19 281.919C432.213 282.95 433.429 283.769 434.77 284.327C436.11 284.886 437.548 285.173 439 285.173C440.452 285.173 441.89 284.886 443.23 284.327C444.571 283.769 445.787 282.95 446.81 281.919C447.841 280.897 448.659 279.68 449.218 278.34C449.776 276.999 450.064 275.561 450.064 274.109C450.064 272.657 449.776 271.219 449.218 269.879C448.659 268.539 447.841 267.322 446.81 266.299L248.81 68.1894ZM320.2 170.819L349.68 200.299C346.663 201.761 343.352 202.513 340 202.499C334.165 202.499 328.569 200.181 324.444 196.056C320.318 191.93 318 186.334 318 180.499C317.986 177.147 318.739 173.836 320.2 170.819V170.819ZM263 246.499C260.083 246.499 257.285 245.34 255.222 243.278C253.159 241.215 252 238.417 252 235.499V147.499C252 144.582 253.159 141.784 255.222 139.721C257.285 137.658 260.083 136.499 263 136.499H285.77L304.47 155.089C299.021 162.445 296.054 171.345 296 180.499C296 192.169 300.636 203.36 308.887 211.612C317.139 219.864 328.33 224.499 340 224.499C349.192 224.468 358.134 221.501 365.52 216.029L395.99 246.499H263ZM417 114.499H402.92L399.51 103.499C397.222 97.0271 392.972 91.4295 387.353 87.4861C381.734 83.5428 375.025 81.4501 368.16 81.4994H319.76C316.843 81.4994 314.045 82.6583 311.982 84.7212C309.919 86.7841 308.76 89.582 308.76 92.4994C308.76 95.4167 309.919 98.2146 311.982 100.278C314.045 102.34 316.843 103.499 319.76 103.499H368.16C370.466 103.493 372.716 104.212 374.591 105.555C376.466 106.897 377.872 108.795 378.61 110.979L384.55 128.909C385.269 131.115 386.667 133.036 388.544 134.4C390.421 135.763 392.68 136.498 395 136.499H417C419.917 136.499 422.715 137.658 424.778 139.721C426.841 141.784 428 144.582 428 147.499V211.739C428 214.657 429.159 217.455 431.222 219.518C433.285 221.58 436.083 222.739 439 222.739C441.917 222.739 444.715 221.58 446.778 219.518C448.841 217.455 450 214.657 450 211.739V147.499C450 138.747 446.523 130.354 440.335 124.165C434.146 117.976 425.752 114.499 417 114.499Z" fill="white"/>
</svg>
